<svg width="320" height="27" viewBox="0 0 320 27" fill="none" xmlns="http://www.w3.org/2000/svg">
<path d="M16.4185 22.729L0.417969 15.6714V13.3672L16.4185 5.375V9.24219L5.39697 14.3501L16.4185 18.8779V22.729ZM31.3555 2.44238L22.5737 26H18.1104L26.8921 2.44238H31.3555ZM303.38 18.8779L314.401 14.3501L303.38 9.24219V5.375L319.38 13.3672V15.6714L303.38 22.729V18.8779Z" fill="#FCA313"/>
<path d="M53.0601 6.26123C52.104 6.26123 51.2554 6.44922 50.5142 6.8252C49.7837 7.19043 49.166 7.72217 48.6611 8.42041C48.167 9.11865 47.791 9.96191 47.5332 10.9502C47.2754 11.9385 47.1465 13.0503 47.1465 14.2856C47.1465 15.9507 47.3506 17.374 47.7588 18.5557C48.1777 19.7266 48.8223 20.6235 49.6924 21.2466C50.5625 21.8589 51.6851 22.165 53.0601 22.165C54.0161 22.165 54.9722 22.0576 55.9282 21.8428C56.895 21.6279 57.9424 21.3218 59.0703 20.9243V25.1138C58.0283 25.5435 57.0024 25.8496 55.9927 26.0322C54.9829 26.2256 53.8496 26.3223 52.5928 26.3223C50.165 26.3223 48.167 25.8228 46.5986 24.8237C45.041 23.814 43.8862 22.4067 43.1343 20.6021C42.3823 18.7866 42.0063 16.6704 42.0063 14.2534C42.0063 12.4702 42.248 10.8374 42.7314 9.35498C43.2148 7.87256 43.9238 6.58887 44.8584 5.50391C45.793 4.41895 46.9478 3.58105 48.3228 2.99023C49.6978 2.39941 51.2769 2.104 53.0601 2.104C54.231 2.104 55.4019 2.25439 56.5728 2.55518C57.7544 2.84521 58.8823 3.24805 59.9565 3.76367L58.3452 7.82422C57.4644 7.40527 56.5781 7.04004 55.6865 6.72852C54.7949 6.41699 53.9194 6.26123 53.0601 6.26123ZM73.7656 7.64697C74.0127 7.64697 74.2974 7.66309 74.6196 7.69531C74.9526 7.7168 75.2212 7.74902 75.4253 7.79199L75.0547 12.4004C74.8936 12.3467 74.6626 12.3091 74.3618 12.2876C74.0718 12.2554 73.8193 12.2393 73.6045 12.2393C72.9707 12.2393 72.353 12.3198 71.7515 12.481C71.1606 12.6421 70.6289 12.9053 70.1562 13.2705C69.6836 13.625 69.3076 14.0977 69.0283 14.6885C68.7598 15.2686 68.6255 15.9829 68.6255 16.8315V26H63.7109V7.98535H67.4331L68.1582 11.0146H68.3999C68.7544 10.4023 69.1948 9.84375 69.7212 9.33887C70.2583 8.82324 70.8652 8.41504 71.542 8.11426C72.2295 7.80273 72.9707 7.64697 73.7656 7.64697ZM83.6108 7.98535V26H78.6963V7.98535H83.6108ZM81.1616 0.927734C81.8921 0.927734 82.5205 1.09961 83.0469 1.44336C83.5732 1.77637 83.8364 2.40479 83.8364 3.32861C83.8364 4.2417 83.5732 4.87549 83.0469 5.22998C82.5205 5.57373 81.8921 5.74561 81.1616 5.74561C80.4204 5.74561 79.7866 5.57373 79.2603 5.22998C78.7446 4.87549 78.4868 4.2417 78.4868 3.32861C78.4868 2.40479 78.7446 1.77637 79.2603 1.44336C79.7866 1.09961 80.4204 0.927734 81.1616 0.927734ZM101.352 20.6504C101.352 21.875 101.062 22.9116 100.481 23.7603C99.9121 24.5981 99.0581 25.2373 97.9194 25.6777C96.7808 26.1074 95.3628 26.3223 93.6655 26.3223C92.4087 26.3223 91.3291 26.2417 90.4268 26.0806C89.5352 25.9194 88.6328 25.6509 87.7197 25.2749V21.2144C88.6973 21.6548 89.7446 22.02 90.8618 22.3101C91.9897 22.5894 92.978 22.729 93.8267 22.729C94.7827 22.729 95.4648 22.5894 95.873 22.3101C96.292 22.02 96.5015 21.644 96.5015 21.1821C96.5015 20.8813 96.4155 20.6128 96.2437 20.3765C96.0825 20.1294 95.728 19.8555 95.1802 19.5547C94.6323 19.2432 93.7729 18.8403 92.6021 18.3462C91.4741 17.8735 90.5449 17.3955 89.8145 16.9121C89.0947 16.4287 88.5576 15.8594 88.2031 15.2041C87.8594 14.5381 87.6875 13.6948 87.6875 12.6743C87.6875 11.0093 88.332 9.75781 89.6211 8.91992C90.9209 8.07129 92.6558 7.64697 94.8257 7.64697C95.9429 7.64697 97.0063 7.75977 98.0161 7.98535C99.0366 8.21094 100.084 8.5708 101.158 9.06494L99.6758 12.6099C98.7842 12.2231 97.9409 11.9062 97.146 11.6592C96.3618 11.4121 95.5615 11.2886 94.7451 11.2886C94.0254 11.2886 93.4829 11.3853 93.1177 11.5786C92.7524 11.772 92.5698 12.0674 92.5698 12.4648C92.5698 12.7549 92.6611 13.0127 92.8438 13.2383C93.0371 13.4639 93.4023 13.7163 93.9395 13.9956C94.4873 14.2642 95.2876 14.6133 96.3403 15.043C97.3608 15.4619 98.2471 15.9023 98.999 16.3643C99.751 16.8154 100.331 17.3794 100.739 18.0562C101.147 18.7222 101.352 19.5869 101.352 20.6504ZM112.776 22.4067C113.313 22.4067 113.834 22.353 114.339 22.2456C114.854 22.1382 115.365 22.0039 115.87 21.8428V25.5005C115.343 25.7368 114.688 25.9302 113.904 26.0806C113.13 26.2417 112.282 26.3223 111.358 26.3223C110.284 26.3223 109.317 26.1504 108.458 25.8066C107.609 25.4521 106.938 24.8452 106.443 23.9858C105.96 23.1157 105.718 21.9072 105.718 20.3604V11.6753H103.366V9.59668L106.073 7.95312L107.491 4.15039H110.633V7.98535H115.676V11.6753H110.633V20.3604C110.633 21.0479 110.826 21.5635 111.213 21.9072C111.61 22.2402 112.131 22.4067 112.776 22.4067ZM124.442 7.98535V26H119.527V7.98535H124.442ZM121.993 0.927734C122.723 0.927734 123.352 1.09961 123.878 1.44336C124.404 1.77637 124.667 2.40479 124.667 3.32861C124.667 4.2417 124.404 4.87549 123.878 5.22998C123.352 5.57373 122.723 5.74561 121.993 5.74561C121.251 5.74561 120.618 5.57373 120.091 5.22998C119.576 4.87549 119.318 4.2417 119.318 3.32861C119.318 2.40479 119.576 1.77637 120.091 1.44336C120.618 1.09961 121.251 0.927734 121.993 0.927734ZM136.994 7.61475C139.411 7.61475 141.264 8.14111 142.553 9.19385C143.842 10.2466 144.487 11.8472 144.487 13.9956V26H141.055L140.104 23.5508H139.975C139.459 24.1953 138.933 24.7217 138.396 25.1299C137.859 25.5381 137.241 25.8389 136.543 26.0322C135.845 26.2256 134.996 26.3223 133.997 26.3223C132.934 26.3223 131.978 26.1182 131.129 25.71C130.291 25.3018 129.63 24.6787 129.147 23.8408C128.664 22.9922 128.422 21.918 128.422 20.6182C128.422 18.7061 129.093 17.2988 130.436 16.3965C131.779 15.4834 133.793 14.9785 136.479 14.8818L139.604 14.7852V13.9956C139.604 13.0503 139.357 12.3574 138.863 11.917C138.369 11.4766 137.682 11.2563 136.801 11.2563C135.931 11.2563 135.077 11.3799 134.239 11.627C133.401 11.874 132.563 12.1855 131.725 12.5615L130.098 9.24219C131.054 8.7373 132.123 8.33984 133.304 8.0498C134.497 7.75977 135.727 7.61475 136.994 7.61475ZM139.604 17.6533L137.703 17.7178C136.113 17.7607 135.007 18.0454 134.384 18.5718C133.771 19.0981 133.465 19.791 133.465 20.6504C133.465 21.4023 133.686 21.9395 134.126 22.2617C134.566 22.5732 135.141 22.729 135.85 22.729C136.903 22.729 137.789 22.4175 138.509 21.7944C139.239 21.1714 139.604 20.2852 139.604 19.1357V17.6533ZM159.794 7.64697C161.717 7.64697 163.264 8.17334 164.435 9.22607C165.606 10.2681 166.191 11.9438 166.191 14.2534V26H161.277V15.478C161.277 14.189 161.041 13.2168 160.568 12.5615C160.106 11.9062 159.375 11.5786 158.376 11.5786C156.873 11.5786 155.847 12.0889 155.299 13.1094C154.751 14.1299 154.477 15.6016 154.477 17.5244V26H149.562V7.98535H153.317L153.978 10.2896H154.251C154.638 9.6665 155.116 9.16162 155.686 8.7749C156.266 8.38818 156.905 8.10352 157.603 7.9209C158.312 7.73828 159.042 7.64697 159.794 7.64697ZM187.622 16.9604C187.622 18.4644 187.418 19.7964 187.01 20.9565C186.612 22.1167 186.027 23.0996 185.253 23.9053C184.491 24.7002 183.567 25.3018 182.482 25.71C181.408 26.1182 180.194 26.3223 178.84 26.3223C177.573 26.3223 176.407 26.1182 175.344 25.71C174.291 25.3018 173.373 24.7002 172.588 23.9053C171.815 23.0996 171.213 22.1167 170.784 20.9565C170.365 19.7964 170.155 18.4644 170.155 16.9604C170.155 14.9624 170.51 13.2705 171.219 11.8848C171.928 10.499 172.938 9.44629 174.248 8.72656C175.559 8.00684 177.122 7.64697 178.937 7.64697C180.624 7.64697 182.117 8.00684 183.417 8.72656C184.727 9.44629 185.753 10.499 186.494 11.8848C187.246 13.2705 187.622 14.9624 187.622 16.9604ZM175.167 16.9604C175.167 18.1421 175.295 19.1357 175.553 19.9414C175.811 20.7471 176.214 21.354 176.762 21.7622C177.31 22.1704 178.024 22.3745 178.905 22.3745C179.775 22.3745 180.479 22.1704 181.016 21.7622C181.563 21.354 181.961 20.7471 182.208 19.9414C182.466 19.1357 182.595 18.1421 182.595 16.9604C182.595 15.7681 182.466 14.7798 182.208 13.9956C181.961 13.2007 181.563 12.6045 181.016 12.207C180.468 11.8096 179.753 11.6108 178.873 11.6108C177.573 11.6108 176.627 12.0566 176.037 12.9482C175.457 13.8398 175.167 15.1772 175.167 16.9604ZM200.642 26V2.44238H205.637V21.875H215.192V26H200.642ZM226.342 7.64697C228.007 7.64697 229.441 7.96924 230.645 8.61377C231.848 9.24756 232.777 10.1714 233.432 11.3853C234.087 12.5991 234.415 14.0815 234.415 15.8325V18.2173H222.797C222.851 19.603 223.265 20.6934 224.038 21.4883C224.822 22.2725 225.907 22.6646 227.293 22.6646C228.442 22.6646 229.495 22.5464 230.451 22.3101C231.407 22.0737 232.39 21.7192 233.4 21.2466V25.0493C232.508 25.4897 231.574 25.812 230.596 26.0161C229.629 26.2202 228.453 26.3223 227.067 26.3223C225.263 26.3223 223.662 25.9893 222.266 25.3232C220.88 24.6572 219.79 23.6421 218.995 22.2778C218.21 20.9136 217.818 19.1948 217.818 17.1216C217.818 15.0161 218.173 13.2651 218.882 11.8687C219.602 10.4614 220.601 9.40869 221.879 8.71045C223.157 8.00146 224.645 7.64697 226.342 7.64697ZM226.375 11.1436C225.418 11.1436 224.624 11.4497 223.99 12.062C223.367 12.6743 223.007 13.6357 222.91 14.9463H229.807C229.796 14.2158 229.662 13.5659 229.404 12.9966C229.157 12.4272 228.781 11.9761 228.276 11.6431C227.782 11.3101 227.148 11.1436 226.375 11.1436ZM244.115 26.3223C242.106 26.3223 240.468 25.5381 239.201 23.9697C237.944 22.3906 237.315 20.0757 237.315 17.0249C237.315 13.9419 237.955 11.6108 239.233 10.0317C240.511 8.44189 242.182 7.64697 244.244 7.64697C245.104 7.64697 245.861 7.76514 246.516 8.00146C247.171 8.23779 247.735 8.55469 248.208 8.95215C248.691 9.34961 249.1 9.79541 249.433 10.2896H249.594C249.529 9.9458 249.449 9.44092 249.352 8.7749C249.266 8.09814 249.223 7.40527 249.223 6.69629V0.927734H254.154V26H250.383L249.433 23.6636H249.223C248.912 24.1577 248.52 24.6089 248.047 25.0171C247.585 25.4146 247.032 25.7314 246.387 25.9678C245.743 26.2041 244.985 26.3223 244.115 26.3223ZM245.839 22.4067C247.182 22.4067 248.127 22.0093 248.675 21.2144C249.234 20.4087 249.529 19.2002 249.562 17.5889V17.0571C249.562 15.3062 249.293 13.9688 248.756 13.0449C248.219 12.1104 247.22 11.6431 245.759 11.6431C244.674 11.6431 243.825 12.1104 243.213 13.0449C242.601 13.9795 242.294 15.3276 242.294 17.0894C242.294 18.8511 242.601 20.1777 243.213 21.0693C243.836 21.9609 244.711 22.4067 245.839 22.4067ZM275.826 7.98535V26H272.056L271.395 23.6958H271.137C270.75 24.3081 270.267 24.8076 269.687 25.1943C269.107 25.5811 268.468 25.8657 267.77 26.0483C267.071 26.231 266.346 26.3223 265.594 26.3223C264.305 26.3223 263.183 26.0967 262.227 25.6455C261.271 25.1836 260.524 24.4692 259.987 23.5024C259.46 22.5356 259.197 21.2788 259.197 19.7319V7.98535H264.112V18.5073C264.112 19.7964 264.343 20.7686 264.805 21.4238C265.267 22.0791 266.002 22.4067 267.012 22.4067C268.011 22.4067 268.795 22.1812 269.365 21.73C269.934 21.2681 270.332 20.5967 270.557 19.7158C270.793 18.8242 270.912 17.7393 270.912 16.4609V7.98535H275.826ZM291.037 7.64697C291.284 7.64697 291.569 7.66309 291.891 7.69531C292.224 7.7168 292.493 7.74902 292.697 7.79199L292.326 12.4004C292.165 12.3467 291.934 12.3091 291.633 12.2876C291.343 12.2554 291.091 12.2393 290.876 12.2393C290.242 12.2393 289.625 12.3198 289.023 12.481C288.432 12.6421 287.9 12.9053 287.428 13.2705C286.955 13.625 286.579 14.0977 286.3 14.6885C286.031 15.2686 285.897 15.9829 285.897 16.8315V26H280.982V7.98535H284.705L285.43 11.0146H285.671C286.026 10.4023 286.466 9.84375 286.993 9.33887C287.53 8.82324 288.137 8.41504 288.813 8.11426C289.501 7.80273 290.242 7.64697 291.037 7.64697Z" fill="#E5E5E5"/>
</svg>
